<svg xmlns="http://www.w3.org/2000/svg" viewBox="0 0 168.05 168.05"><defs><style>.cls-1{fill:#bd6044;}.cls-2,.cls-3{fill:#fff;}.cls-3{font-size:9.78px;font-family:GillSans, Gill Sans;}</style></defs><title>Fichier 2logo</title><g id="Calque_2" data-name="Calque 2"><g id="Calque_1-2" data-name="Calque 1"><circle class="cls-1" cx="84.03" cy="84.03" r="84.03"/><path class="cls-2" d="M120,118.39l-.35.24a43.52,43.52,0,0,1-9.07,4.83,65.77,65.77,0,0,1-24.71,4.18H41.6v-1H53.54V45.05H41.6v-1h13m25.9,29.5v53.1h5.37a17.75,17.75,0,0,0,10.86-4.18,24,24,0,0,0,4-4.36,27.37,27.37,0,0,0,3.46-6.74,53.51,53.51,0,0,0,2.26-8.53"/><rect class="cls-2" x="86.68" y="5.56" width="0.89" height="150.41" transform="translate(-31.63 77.55) rotate(-41.28)"/><text class="cls-3" transform="translate(67.28 47.89) rotate(180)"> <tspan x="3.87" y="0"> </tspan></text><text class="cls-3" transform="translate(58.73 47.8) rotate(175.22)"> </text><text class="cls-3" transform="translate(59.79 48.72)"> <tspan x="3.86" y="0"> </tspan><tspan x="7.75" y="0">p</tspan><tspan x="13.79" y="0">r</tspan><tspan x="18.55" y="0">o</tspan></text><text class="cls-3" transform="translate(84.67 48.92) rotate(8.22)">g</text><text class="cls-3" transform="translate(89.81 49.71) rotate(12.55)">r</text><text class="cls-3" transform="matrix(0.96, 0.3, -0.3, 0.96, 94.6, 50.81)">a</text><text class="cls-3" transform="matrix(0.91, 0.41, -0.41, 0.91, 99.52, 52.26)">m</text><text class="cls-3" transform="matrix(0.81, 0.59, -0.59, 0.81, 107.11, 55.77)">m</text><text class="cls-3" transform="translate(113.73 60.88) rotate(48.64)">e</text><text class="cls-3" transform="matrix(0.52, 0.85, -0.85, 0.52, 117.29, 65.13)">-</text><text class="cls-3" transform="matrix(0.41, 0.91, -0.91, 0.41, 119.37, 68.7)">l</text><text class="cls-3" transform="translate(120.58 71.57) rotate(72.49)">i</text><text class="cls-3" transform="translate(121.51 74.5) rotate(80.44)">v</text><text class="cls-3" transform="translate(122.25 79.54) rotate(86.03)">e</text><text class="cls-3" transform="matrix(0.02, 1, -1, 0.02, 122.6, 85.46)">.</text><text class="cls-3" transform="translate(122.68 88.67) rotate(91.86)">c</text><text class="cls-3" transform="matrix(-0.13, 0.99, -0.99, -0.13, 122.5, 93.96)">o</text><text class="cls-3" transform="matrix(-0.29, 0.96, -0.96, -0.29, 121.76, 100.22)">m</text></g></g></svg>
