<svg xmlns="http://www.w3.org/2000/svg" viewBox="0 0 372.67 114.18"><defs><style>.cls-1{fill:#1f2225;}.cls-2{fill:#e9a95f;}.cls-3{fill:#f4978d;}.cls-4{fill:#0c5b67;}</style></defs><title>Fichier 1logo</title><g id="Calque_2" data-name="Calque 2"><g id="Calque_1-2" data-name="Calque 1"><path class="cls-1" d="M260.12,84.09v.66H230.91v-.66h6.31V27.33h-6.31v-.66q2.32,0,5.6-.08t6.56-.29q3.28-.21,6.18-.54a29.86,29.86,0,0,0,4.65-.83V84.09Z"/><path class="cls-1" d="M268.42,79.42V42.52h-6.31v-.66q2.32,0,5.56-.08t6.51-.29q3.28-.21,6.18-.54a29.84,29.84,0,0,0,4.65-.83V62.74m-22,22h-.95v-.66h1.53"/><path class="cls-1" d="M299.08,48.86l-.46-.86a29.6,29.6,0,0,0-2.23-3.59q-1-1.36-1.7-1.36h-.43v-.49h1.92a49.48,49.48,0,0,1,6,.31,18.36,18.36,0,0,1,2.3.43"/><path class="cls-1" d="M204.22,49.34l10,18.17,7.39-19.09a4.93,4.93,0,0,0,.37-1.45c0-.41,0-.76,0-1a3.67,3.67,0,0,0-.41-1.87,2.8,2.8,0,0,0-1-1,3.34,3.34,0,0,0-1.24-.42,9.73,9.73,0,0,0-1.16-.08H216.5v-.66h14.69v.66h-1.08a9.41,9.41,0,0,0-3.49.54,6.09,6.09,0,0,0-2.16,1.41,6.82,6.82,0,0,0-1.29,1.87q-.46,1-.79,1.91L204.64,93.08a13.58,13.58,0,0,1-2.41,3.82A16,16,0,0,1,199,99.67a15,15,0,0,1-3.57,1.7,11.07,11.07,0,0,1-3.32.58,7.53,7.53,0,0,1-2.78-.54,7.8,7.8,0,0,1-4.19-3.9,6.84,6.84,0,0,1-.66-3,7.31,7.31,0,0,1,.62-3,7.61,7.61,0,0,1,1.7-2.45,8.48,8.48,0,0,1,2.49-1.66,7.51,7.51,0,0,1,6.8.41,6.63,6.63,0,0,1,2.66,3l1.41,3.07q.66,1.16,1.41,1.16a1.59,1.59,0,0,0,1.16-.71,13.4,13.4,0,0,0,1-1.37L207,84.78l-2-3.69q-1.29-2.45-3-5.64t-3.69-6.89q-2-3.69-4.07-7.34l-.65-1.14"/><path class="cls-1" d="M139.1,84.52v.41H126.4v-.41h.91c4.23,0,4.23-1.16,4.23-5.39V50.5c0-4.23,0-5.31-4.23-5.31h-.91v-.42H134V79.13c0,4.23,0,5.39,4.23,5.39Z"/><path class="cls-1" d="M130.62,31.45a2.33,2.33,0,0,1,0,.33,2.3,2.3,0,0,1-2.24,2.32,2.37,2.37,0,0,1-.47,0"/><path class="cls-1" d="M166.15,84.52v.41H153.53v-.41h.91c4.23,0,4.23-1.16,4.23-5.39V32.58c0-4.23,0-5.31-4.23-5.31h-.91v-.41H161V79.13c0,4.23,0,5.39,4.23,5.39Z"/><path class="cls-1" d="M105.22,57.11V77.28c0,5,1.28,6,3.35,6.21,2.27.2,5.52-1.48,7.69-4.43l.3.3c-1.68,2.37-5,5.12-8.67,5.12-3.84,0-5.42-2.37-5.42-7.79V67.92c-1,5.52-7.69,16.06-18.53,16.56A22.29,22.29,0,0,1,78.24,84m1.17-1a19.1,19.1,0,0,0,7.19.2c8.77-1.38,15.87-10.64,15.87-19.41V60"/><path class="cls-1" d="M193.79,59.83,186.61,43c-1.58-3.73-2.74-5.31-5.81-5.31h-.91v-.42h12.45v.42h-.75c-4,0-4.4,1-3,4.23l6.88,16.13"/><path class="cls-1" d="M284.88,26.41a7.83,7.83,0,0,1-2.44,5.72,8.06,8.06,0,0,1-11.54,0,8,8,0,0,1,0-11.49,7.38,7.38,0,0,1,5.77-2.44,8.32,8.32,0,0,1,8.21,8.21Z"/><path class="cls-1" d="M369.37,45.56a7.26,7.26,0,0,1,3.29,6.71,11.2,11.2,0,0,1-2.68,7,18.19,18.19,0,0,1-6.46,5.1,42.18,42.18,0,0,1-8.31,3.09,54.67,54.67,0,0,1-9,1.44q-.86,11.73,6.22,13A11.93,11.93,0,0,0,362,79.23a29.7,29.7,0,0,0,8.6-11h1.77q-3.66,8-8.85,12.23a19.47,19.47,0,0,1-12.43,4.16q-8.27,0-12.39-5.72-3.83-5.56-2.14-14.16a26.76,26.76,0,0,1,8.73-14.86,28.18,28.18,0,0,1,7.53-4.65,22.47,22.47,0,0,1,8.07-1.85A13.69,13.69,0,0,1,369.37,45.56Zm-18,7.29a34.66,34.66,0,0,0-5,14.24A33.53,33.53,0,0,0,355.83,65a13.23,13.23,0,0,0,6.5-5.52q3.09-5.23,2-10-1-4.2-4.45-3.79Q355.54,46.06,351.34,52.85Z"/><path class="cls-1" d="M304.37,43.3l1.66.39q5.84,1.4,8.15.58-8.77,24.86-7.29,32.52.9,4,4,4.36,3.83.25,7.86-4.32a34.06,34.06,0,0,0,6.38-11.07,27.63,27.63,0,0,0,2-11.28,7.78,7.78,0,0,0-1.93-4.82,24.15,24.15,0,0,0-1.89-2.43,3.71,3.71,0,0,1-.66-1.65,3.75,3.75,0,0,1,.58-2.06,2.59,2.59,0,0,1,2-1.11,3.38,3.38,0,0,1,2.88,1.28,6.25,6.25,0,0,1,1.56,3.38,28.23,28.23,0,0,1,.37,9.06,41.53,41.53,0,0,1-3.54,13.34q-3.33,8.15-8.44,11.81a17.34,17.34,0,0,1-11.11,3.29A10.77,10.77,0,0,1,300,81.85a10.42,10.42,0,0,1-3.46-7.9q0-9,14.41-26.88-2.31.74-5.39,1.61a13.56,13.56,0,0,1-6.76.17"/><path class="cls-1" d="M31,26.43a32.53,32.53,0,0,1,12.24,2.31,31.82,31.82,0,0,1,10,6.4,30.89,30.89,0,0,1,6.52,9.28,27.74,27.74,0,0,1,2.67,11.47,28.11,28.11,0,0,1-7.9,20.83,26.56,26.56,0,0,1-20.1,8.67H0V83.77q7.41-.12,7.41-7.33v-41q0-7.29-7.41-7.42V26.43ZM17.71,73.92q0,9.6,11.39,9.6a25.29,25.29,0,0,0,8.35-1.3,18.51,18.51,0,0,0,7.33-5.11,24,24,0,0,0,5.23-9,35.4,35.4,0,0,0,1.7-12.2,29.71,29.71,0,0,0-7.58-19.57,23,23,0,0,0-8.75-6,28.09,28.09,0,0,0-10.49-2.11H17.71Z"/><path class="cls-1" d="M77.23,84.73a12.82,12.82,0,0,1-2.4-1.64,10.58,10.58,0,0,1-3.44-8.31q0-8.43,9.4-11.67,15.68-5.51,15.56-12.44-.08-5.27-8.14-5.27-3.28,0-4.7,1.34a16.34,16.34,0,0,0-1.78,3.73,8.46,8.46,0,0,1-1.66,2.72,3.75,3.75,0,0,1-2.15,1.26,3.28,3.28,0,0,1-2.67-.57,3.58,3.58,0,0,1-1.38-2.43q-.2-2.27,2.43-4.42,4.33-3.53,11.91-3.61,12.84,0,16.09,6.48A16.3,16.3,0,0,1,105.85,56m-9.51,9.54V58.05q-2.27,2.55-9.48,6.16a9.33,9.33,0,0,0-4.42,4.09,12.13,12.13,0,0,0-1.38,6,11.49,11.49,0,0,0,1.36,5.16"/><path class="cls-1" d="M125.62,36.3a6.37,6.37,0,0,1-.06-.88A6,6,0,0,1,127.42,31a5.65,5.65,0,0,1,4.42-1.86,6.55,6.55,0,0,1,.9.06"/><path class="cls-1" d="M282.79,64.5l-1.46,6.4q-1.84,8.11.46,8.57,3.91.81,6.5-13h2.76q-1.55,18.81-13.52,17.94a10.82,10.82,0,0,1-8-3.91,7.79,7.79,0,0,1-1-1.69"/><rect class="cls-2" x="117.22" y="56.4" width="159.72" height="0.49" transform="translate(17.67 155.95) rotate(-45)"/><rect class="cls-3" x="210.19" y="56.85" width="160.99" height="0.49" transform="translate(44.77 222.26) rotate(-45)"/><rect class="cls-4" x="24.96" y="56.64" width="160.41" height="0.49" transform="translate(-9.42 91.02) rotate(-45)"/></g></g></svg>